<svg width="24" height="24" viewBox="0 0 24 24" fill="none" xmlns="http://www.w3.org/2000/svg">
<path d="M23.5554 23.5543C23.2585 23.8514 22.903 24 22.489 24C22.0749 24 21.7195 23.8514 21.4226 23.5543L16.7821 18.9091C14.9071 20.3011 12.8134 20.9971 10.501 20.9971C9.07914 20.9971 7.7198 20.7195 6.42295 20.1642C5.12611 19.609 4.00894 18.8622 3.07146 17.9238C2.13399 16.9853 1.38791 15.871 0.833233 14.5806C0.278558 13.2903 0.0012207 11.9296 0.0012207 10.4985C0.0012207 9.06745 0.278558 7.70283 0.833233 6.40469C1.38791 5.10655 2.13399 3.99218 3.07146 3.06158C4.00894 2.13099 5.12611 1.38807 6.42295 0.832845C7.7198 0.277615 9.07914 0 10.501 0C11.9228 0 13.2822 0.277615 14.579 0.832845C15.8759 1.38807 16.993 2.13099 17.9305 3.06158C18.868 3.99218 19.6141 5.10655 20.1687 6.40469C20.7234 7.70283 21.0007 9.06354 21.0007 10.4868C21.0007 12.8172 20.3055 14.913 18.9149 16.7742L23.5554 21.4194C23.8522 21.7165 24.0007 22.0723 24.0007 22.4868C24.0007 22.9013 23.8522 23.2571 23.5554 23.5543ZM10.501 3.00293C9.14164 3.00293 7.88776 3.33529 6.73935 4C5.59094 4.66471 4.6808 5.57576 4.00894 6.73314C3.33708 7.89052 3.00115 9.14565 3.00115 10.4985C3.00115 11.8514 3.33708 13.1065 4.00894 14.2639C4.6808 15.4213 5.59094 16.3324 6.73935 16.9971C7.88776 17.6618 9.14164 17.9941 10.501 17.9941C11.8603 17.9941 13.1142 17.6618 14.2626 16.9971C15.411 16.3324 16.3212 15.4213 16.993 14.2639C17.6649 13.1065 18.0008 11.8514 18.0008 10.4985C18.0008 9.14565 17.6649 7.89052 16.993 6.73314C16.3212 5.57576 15.411 4.66471 14.2626 4C13.1142 3.33529 11.8603 3.00293 10.501 3.00293Z" fill="black"/>
</svg>
