<svg width="23" height="23" viewBox="0 0 23 23" fill="none" xmlns="http://www.w3.org/2000/svg">
<path fill-rule="evenodd" clip-rule="evenodd" d="M17.031 7.46888C17.1008 7.53854 17.1562 7.62131 17.194 7.71242C17.2318 7.80354 17.2513 7.90122 17.2513 7.99988C17.2513 8.09853 17.2318 8.19621 17.194 8.28733C17.1562 8.37844 17.1008 8.46121 17.031 8.53088L12.531 13.0309C12.4613 13.1007 12.3785 13.1561 12.2874 13.1939C12.1963 13.2318 12.0986 13.2512 12 13.2512C11.9013 13.2512 11.8036 13.2318 11.7125 13.1939C11.6214 13.1561 11.5386 13.1007 11.469 13.0309L9.21897 10.7809C9.14924 10.7111 9.09392 10.6284 9.05619 10.5373C9.01845 10.4461 8.99902 10.3485 8.99902 10.2499C8.99902 10.1513 9.01845 10.0536 9.05619 9.9625C9.09392 9.87139 9.14924 9.78861 9.21897 9.71888C9.2887 9.64914 9.37149 9.59383 9.4626 9.55609C9.5537 9.51835 9.65136 9.49893 9.74997 9.49893C9.84859 9.49893 9.94624 9.51835 10.0373 9.55609C10.1285 9.59383 10.2112 9.64914 10.281 9.71888L12 11.4394L15.969 7.46888C16.0386 7.39903 16.1214 7.34362 16.2125 7.30581C16.3036 7.268 16.4013 7.24854 16.5 7.24854C16.5986 7.24854 16.6963 7.268 16.7874 7.30581C16.8785 7.34362 16.9613 7.39903 17.031 7.46888Z" fill="white"/>
<path fill-rule="evenodd" clip-rule="evenodd" d="M0 1.25C0 1.05109 0.0790176 0.860322 0.21967 0.71967C0.360322 0.579018 0.551088 0.5 0.75 0.5H3C3.1673 0.500046 3.32978 0.556026 3.4616 0.659037C3.59342 0.762048 3.68701 0.906176 3.7275 1.0685L4.335 3.5H21.75C21.8601 3.5001 21.9689 3.52445 22.0685 3.57133C22.1682 3.6182 22.2563 3.68644 22.3266 3.77121C22.3969 3.85597 22.4477 3.95518 22.4753 4.06178C22.5029 4.16838 22.5068 4.27976 22.4865 4.388L20.2365 16.388C20.2043 16.5599 20.1131 16.7151 19.9786 16.8268C19.8442 16.9386 19.6749 16.9998 19.5 17H6C5.82515 16.9998 5.65585 16.9386 5.52137 16.8268C5.38688 16.7151 5.29567 16.5599 5.2635 16.388L3.015 4.4105L2.415 2H0.75C0.551088 2 0.360322 1.92098 0.21967 1.78033C0.0790176 1.63968 0 1.44891 0 1.25ZM4.653 5L6.6225 15.5H18.8775L20.847 5H4.653ZM7.5 17C6.70435 17 5.94129 17.3161 5.37868 17.8787C4.81607 18.4413 4.5 19.2044 4.5 20C4.5 20.7956 4.81607 21.5587 5.37868 22.1213C5.94129 22.6839 6.70435 23 7.5 23C8.29565 23 9.05871 22.6839 9.62132 22.1213C10.1839 21.5587 10.5 20.7956 10.5 20C10.5 19.2044 10.1839 18.4413 9.62132 17.8787C9.05871 17.3161 8.29565 17 7.5 17ZM18 17C17.2044 17 16.4413 17.3161 15.8787 17.8787C15.3161 18.4413 15 19.2044 15 20C15 20.7956 15.3161 21.5587 15.8787 22.1213C16.4413 22.6839 17.2044 23 18 23C18.7957 23 19.5587 22.6839 20.1213 22.1213C20.6839 21.5587 21 20.7956 21 20C21 19.2044 20.6839 18.4413 20.1213 17.8787C19.5587 17.3161 18.7957 17 18 17ZM7.5 18.5C7.10218 18.5 6.72065 18.658 6.43934 18.9393C6.15804 19.2206 6 19.6022 6 20C6 20.3978 6.15804 20.7794 6.43934 21.0607C6.72065 21.342 7.10218 21.5 7.5 21.5C7.89783 21.5 8.27936 21.342 8.56066 21.0607C8.84196 20.7794 9 20.3978 9 20C9 19.6022 8.84196 19.2206 8.56066 18.9393C8.27936 18.658 7.89783 18.5 7.5 18.5ZM18 18.5C17.6022 18.5 17.2206 18.658 16.9393 18.9393C16.658 19.2206 16.5 19.6022 16.5 20C16.5 20.3978 16.658 20.7794 16.9393 21.0607C17.2206 21.342 17.6022 21.5 18 21.5C18.3978 21.5 18.7794 21.342 19.0607 21.0607C19.342 20.7794 19.5 20.3978 19.5 20C19.5 19.6022 19.342 19.2206 19.0607 18.9393C18.7794 18.658 18.3978 18.5 18 18.5Z" fill="white"/>
</svg>
